<svg id="Calque_1" data-name="Calque 1" xmlns="http://www.w3.org/2000/svg" xmlns:xlink="http://www.w3.org/1999/xlink" viewBox="0 0 64 64"><defs><style>.cls-1{fill:#ecf0f1;}.cls-2{fill:url(#degrade_1);}</style><radialGradient id="degrade_1" cx="32.39" cy="31.61" r="20.88" gradientUnits="userSpaceOnUse"><stop offset="0" stop-color="#2c3e50"/><stop offset="1" stop-color="#34495e"/></radialGradient></defs><title>fabrication</title><circle class="cls-1" cx="32" cy="32" r="32"/><path class="cls-2" d="M42.81,28.26l-5-2-2-5,9.7-9.7a11.87,11.87,0,0,0-7.74-.21,12,12,0,0,0-7.88,7.88A11.87,11.87,0,0,0,30,26.9l-18,18a1.89,1.89,0,0,0,0,2.67l4.41,4.41a1.89,1.89,0,0,0,2.67,0l18-18a11.87,11.87,0,0,0,7.74.21,12,12,0,0,0,7.88-7.88,11.87,11.87,0,0,0-.21-7.74Z"/></svg>