<svg id="Calque_1" data-name="Calque 1" xmlns="http://www.w3.org/2000/svg" xmlns:xlink="http://www.w3.org/1999/xlink" viewBox="0 0 64 64"><defs><style>.cls-1{fill:#ecf0f1;}.cls-2{fill:url(#degrade_1);}</style><radialGradient id="degrade_1" cx="32" cy="32" r="23.5" gradientUnits="userSpaceOnUse"><stop offset="0" stop-color="#2c3e50"/><stop offset="1" stop-color="#34495e"/></radialGradient></defs><title>product2</title><circle class="cls-1" cx="32" cy="32" r="32"/><path class="cls-2" d="M54.89,28.46l-6-.49a17.29,17.29,0,0,0-2.12-5.09l3.85-4.57a.6.6,0,0,0,0-.81l-4.14-4.13a.6.6,0,0,0-.81,0L41.09,17.2A17.26,17.26,0,0,0,36,15.09l-.5-6a.64.64,0,0,0-.59-.59H29.06a.64.64,0,0,0-.59.59l-.5,6a17.28,17.28,0,0,0-5.09,2.12l-4.57-3.85a.6.6,0,0,0-.81,0l-4.13,4.14a.6.6,0,0,0,0,.81l3.86,4.56A17.26,17.26,0,0,0,15.1,28l-6,.5a.64.64,0,0,0-.59.59V34.9a.64.64,0,0,0,.59.59l6,.5a17.28,17.28,0,0,0,2.12,5.09l-3.86,4.56a.6.6,0,0,0,0,.81l4.14,4.13a.6.6,0,0,0,.81,0l4.57-3.86A17.26,17.26,0,0,0,28,48.88l.5,6a.65.65,0,0,0,.59.61h5.85a.65.65,0,0,0,.59-.61l.5-6a17.29,17.29,0,0,0,5.09-2.12l4.56,3.85a.6.6,0,0,0,.81,0l4.13-4.14a.6.6,0,0,0,0-.81l-3.86-4.57A17.26,17.26,0,0,0,48.88,36l6-.5a.65.65,0,0,0,.6-.59V29.06A.65.65,0,0,0,54.89,28.46ZM32,41.34A9.35,9.35,0,1,1,41.34,32,9.35,9.35,0,0,1,32,41.34Z"/></svg>