<svg id="Calque_1" data-name="Calque 1" xmlns="http://www.w3.org/2000/svg" xmlns:xlink="http://www.w3.org/1999/xlink" viewBox="0 0 64 64"><defs><style>.cls-1{fill:url(#Dégradé_sans_nom_4);}.cls-2{fill:#fff;}</style><radialGradient id="Dégradé_sans_nom_4" cx="32" cy="32" r="32" gradientUnits="userSpaceOnUse"><stop offset="0" stop-color="#2c3e50"/><stop offset="1" stop-color="#34495e"/></radialGradient></defs><title>product</title><circle class="cls-1" cx="32" cy="32" r="32"/><path class="cls-2" d="M29.61,54.1,11.58,46a1,1,0,0,1-.58-.9V25.24a1,1,0,0,1,1.39-.9l18,8.11a1,1,0,0,1,.58.9V53.2A1,1,0,0,1,29.61,54.1Z"/><path class="cls-2" d="M34.39,54.1l18-8.11a1,1,0,0,0,.58-.9V25.24a1,1,0,0,0-1.39-.9l-18,8.11a1,1,0,0,0-.58.9V53.2A1,1,0,0,0,34.39,54.1Z"/><path class="cls-2" d="M51.33,20.52l-19,9a.88.88,0,0,1-.76,0l-19-9a.88.88,0,0,1,0-1.59l19-9a.88.88,0,0,1,.76,0l19,9A.88.88,0,0,1,51.33,20.52Z"/></svg>