<?xml version="1.0" encoding="utf-8"?>
<!-- Generator: Adobe Illustrator 21.0.0, SVG Export Plug-In . SVG Version: 6.00 Build 0)  -->
<svg version="1.1" id="Calque_1" xmlns="http://www.w3.org/2000/svg" xmlns:xlink="http://www.w3.org/1999/xlink" x="0px" y="0px"
	 viewBox="0 0 1024 236" style="enable-background:new 0 0 1024 236;" xml:space="preserve">
<style type="text/css">
	.st0{fill:url(#SVGID_1_);}
	.st1{fill:url(#SVGID_2_);}
	.st2{fill:url(#SVGID_3_);}
	.st3{fill:url(#SVGID_4_);}
	.st4{fill:url(#SVGID_5_);}
	.st5{fill:url(#SVGID_6_);}
	.st6{fill:url(#SVGID_7_);}
	.st7{fill:url(#SVGID_8_);}
	.st8{fill:url(#SVGID_9_);}
	.st9{fill:url(#SVGID_10_);}
	.st10{fill:url(#SVGID_11_);}
</style>
<g>
	<linearGradient id="SVGID_1_" gradientUnits="userSpaceOnUse" x1="9.1459" y1="99.4874" x2="99.2691" y2="99.4874">
		<stop  offset="1.068526e-03" style="stop-color:#FE8C00"/>
		<stop  offset="1" style="stop-color:#F83600"/>
	</linearGradient>
	<path class="st0" d="M65.4,46.6v126.8H43.1V46.6h-34v-21h90.1v21H65.4z"/>
	<linearGradient id="SVGID_2_" gradientUnits="userSpaceOnUse" x1="103.5383" y1="92.5512" x2="183.7116" y2="92.5512">
		<stop  offset="1.068526e-03" style="stop-color:#FE8C00"/>
		<stop  offset="1" style="stop-color:#F83600"/>
	</linearGradient>
	<path class="st1" d="M103.5,11.8h21.5v76.2c7.7-6.9,16.1-10.3,25.4-10.3c10.5,0,18.9,3.4,25.3,10.2c5.4,5.9,8,15.4,8,28.4v57.1
		h-21.5v-55.1c0-7.5-1.3-12.9-4-16.2c-2.6-3.3-6.9-5-12.8-5c-7.5,0-12.8,2.3-15.9,7c-3,4.7-4.5,12.8-4.5,24.3v45.1h-21.5V11.8z"/>
	<linearGradient id="SVGID_3_" gradientUnits="userSpaceOnUse" x1="194.0099" y1="100.4442" x2="222.0419" y2="100.4442">
		<stop  offset="1.068526e-03" style="stop-color:#FE8C00"/>
		<stop  offset="1" style="stop-color:#F83600"/>
	</linearGradient>
	<path class="st2" d="M194,41.4c0-3.8,1.4-7,4.1-9.8c2.7-2.7,6-4.1,9.9-4.1c3.9,0,7.2,1.4,9.9,4.1c2.7,2.7,4.1,6,4.1,9.9
		c0,3.9-1.4,7.2-4.1,9.9c-2.7,2.7-6,4.1-9.9,4.1c-3.9,0-7.2-1.4-9.9-4.1C195.4,48.7,194,45.4,194,41.4z M218.8,80.2v93.2h-21.5V80.2
		H218.8z"/>
	<linearGradient id="SVGID_4_" gradientUnits="userSpaceOnUse" x1="232.3394" y1="125.4624" x2="312.6083" y2="125.4624">
		<stop  offset="1.068526e-03" style="stop-color:#FE8C00"/>
		<stop  offset="1" style="stop-color:#F83600"/>
	</linearGradient>
	<path class="st3" d="M232.3,80.2H254v8.6c7.5-7.5,16-11.2,25.4-11.2c10.8,0,19.3,3.4,25.4,10.2c5.2,5.8,7.8,15.3,7.8,28.4v57.1H291
		v-52c0-9.2-1.3-15.5-3.8-19c-2.5-3.6-7-5.4-13.6-5.4c-7.1,0-12.2,2.4-15.2,7.1c-2.9,4.7-4.4,12.8-4.4,24.4v45h-21.6V80.2z"/>
	<linearGradient id="SVGID_5_" gradientUnits="userSpaceOnUse" x1="326.0638" y1="92.5512" x2="409.777" y2="92.5512">
		<stop  offset="1.068526e-03" style="stop-color:#FE8C00"/>
		<stop  offset="1" style="stop-color:#F83600"/>
	</linearGradient>
	<path class="st4" d="M347.6,11.8v98.5l30.3-30.1h28.9l-40.5,39.1l43.4,54.1h-27.9L351,134l-3.4,3.4v35.9h-21.5V11.8H347.6z"/>
	<linearGradient id="SVGID_6_" gradientUnits="userSpaceOnUse" x1="443.8634" y1="94.8473" x2="587.4673" y2="94.8473">
		<stop  offset="1.068526e-03" style="stop-color:#FE8C00"/>
		<stop  offset="1" style="stop-color:#F83600"/>
	</linearGradient>
	<path class="st5" d="M547.6,137.5h-63.2l-16.5,35.9h-24l73.1-157l70.5,157h-24.4L547.6,137.5z M538.5,116.5l-21.9-50.2l-23,50.2
		H538.5z"/>
	<linearGradient id="SVGID_7_" gradientUnits="userSpaceOnUse" x1="588.1027" y1="125.4624" x2="668.3709" y2="125.4624">
		<stop  offset="1.068526e-03" style="stop-color:#FE8C00"/>
		<stop  offset="1" style="stop-color:#F83600"/>
	</linearGradient>
	<path class="st6" d="M588.1,80.2h21.6v8.6c7.5-7.5,16-11.2,25.4-11.2c10.8,0,19.3,3.4,25.4,10.2c5.2,5.8,7.8,15.3,7.8,28.4v57.1
		h-21.6v-52c0-9.2-1.3-15.5-3.8-19c-2.5-3.6-7-5.4-13.6-5.4c-7.1,0-12.2,2.4-15.2,7.1c-2.9,4.7-4.4,12.8-4.4,24.4v45h-21.6V80.2z"/>
	<linearGradient id="SVGID_8_" gradientUnits="userSpaceOnUse" x1="677.4247" y1="126.8018" x2="772.1401" y2="126.8018">
		<stop  offset="1.068526e-03" style="stop-color:#FE8C00"/>
		<stop  offset="1" style="stop-color:#F83600"/>
	</linearGradient>
	<path class="st7" d="M750.5,80.2h21.6v93.2h-21.6v-9.8c-8.9,8.3-18.4,12.4-28.6,12.4c-12.9,0-23.5-4.7-32-14
		c-8.4-9.5-12.5-21.4-12.5-35.6c0-14,4.2-25.6,12.5-34.9c8.4-9.3,18.8-14,31.4-14c10.8,0,20.6,4.5,29.2,13.4V80.2z M699.4,126.5
		c0,8.9,2.4,16.2,7.2,21.8c4.9,5.7,11.1,8.5,18.6,8.5c8,0,14.4-2.7,19.3-8.2c4.9-5.7,7.4-12.9,7.4-21.6c0-8.7-2.5-15.9-7.4-21.6
		c-4.9-5.5-11.3-8.3-19.1-8.3c-7.4,0-13.6,2.8-18.6,8.4C701.9,111.1,699.4,118.1,699.4,126.5z"/>
	<linearGradient id="SVGID_9_" gradientUnits="userSpaceOnUse" x1="785.598" y1="92.5512" x2="807.1243" y2="92.5512">
		<stop  offset="1.068526e-03" style="stop-color:#FE8C00"/>
		<stop  offset="1" style="stop-color:#F83600"/>
	</linearGradient>
	<path class="st8" d="M807.1,11.8v161.6h-21.5V11.8H807.1z"/>
	<linearGradient id="SVGID_10_" gradientUnits="userSpaceOnUse" x1="816.2737" y1="126.8018" x2="915.6771" y2="126.8018">
		<stop  offset="1.068526e-03" style="stop-color:#FE8C00"/>
		<stop  offset="1" style="stop-color:#F83600"/>
	</linearGradient>
	<path class="st9" d="M816.3,126.1c0-13.5,4.8-24.9,14.4-34.3c9.6-9.4,21.4-14.2,35.2-14.2c13.9,0,25.7,4.8,35.4,14.3
		c9.6,9.5,14.4,21.2,14.4,35c0,14-4.8,25.7-14.4,35.1c-9.7,9.4-21.6,14.1-35.7,14.1c-14,0-25.7-4.8-35.1-14.4
		C821,152.2,816.3,140.4,816.3,126.1z M838.3,126.5c0,9.3,2.5,16.7,7.5,22.1c5.1,5.5,11.8,8.2,20.2,8.2c8.4,0,15.1-2.7,20.2-8.1
		c5-5.4,7.6-12.7,7.6-21.7c0-9.1-2.5-16.3-7.6-21.7c-5.1-5.5-11.8-8.2-20.2-8.2c-8.2,0-14.9,2.7-20,8.2
		C840.8,110.7,838.3,117.8,838.3,126.5z"/>
	<linearGradient id="SVGID_11_" gradientUnits="userSpaceOnUse" x1="920.33" y1="150.9112" x2="1014.8541" y2="150.9112">
		<stop  offset="1.068526e-03" style="stop-color:#FE8C00"/>
		<stop  offset="1" style="stop-color:#F83600"/>
	</linearGradient>
	<path class="st10" d="M1014.9,171.1c0,4.4-0.1,8.3-0.4,11.6c-0.3,3.3-0.7,6.3-1.2,8.8c-1.5,7-4.5,13-9,18.1
		c-8.4,9.7-20,14.5-34.7,14.5c-12.4,0-22.7-3.3-30.7-10c-8.3-6.9-13.1-16.4-14.4-28.6h21.6c0.8,4.6,2.2,8.1,4.1,10.6
		c4.5,5.8,11,8.7,19.5,8.7c15.8,0,23.6-9.7,23.6-29v-13c-8.5,8.7-18.4,13.1-29.6,13.1c-12.7,0-23.1-4.6-31.2-13.8
		c-8.2-9.3-12.2-21-12.2-34.9c0-13.6,3.8-25.1,11.4-34.6c8.2-10.1,18.9-15.1,32.3-15.1c11.7,0,21.5,4.4,29.3,13.1V80.2h21.5V171.1z
		 M994.2,126.9c0-9.1-2.4-16.3-7.3-21.7c-4.9-5.5-11.2-8.3-18.8-8.3c-8.2,0-14.6,3-19.3,9.1c-4.3,5.4-6.4,12.4-6.4,21
		c0,8.5,2.1,15.4,6.4,20.9c4.7,5.9,11.1,8.9,19.3,8.9c8.2,0,14.7-3,19.5-9C992,142.4,994.2,135.4,994.2,126.9z"/>
</g>
</svg>
